<svg width="57" height="94" viewBox="0 0 57 94" fill="none" xmlns="http://www.w3.org/2000/svg">
<path d="M28.5352 93.0246L3.83118 51.8048L53.1336 51.7527L28.5352 93.0246Z" fill="#001753"/>
<path d="M0 28H57V40C57 51.0457 48.0457 60 37 60H20C8.9543 60 0 51.0457 0 40V28Z" fill="#001753"/>
<ellipse cx="28.5" cy="33" rx="28.5" ry="33" fill="#001753"/>
<path d="M39.25 12C41.3203 12 43 13.511 43 15.375V44.625C43 46.4883 41.3203 48 39.25 48H31.75V42.375C31.75 40.5117 30.0703 39 28 39C25.9297 39 24.25 40.5117 24.25 42.375V48H16.75C14.6789 48 13 46.4883 13 44.625V15.375C13 13.511 14.6789 12 16.75 12H39.25ZM18 31.125C18 31.7437 18.5594 32.25 19.25 32.25H21.75C22.4375 32.25 23 31.7437 23 31.125V28.875C23 28.2563 22.4375 27.75 21.75 27.75H19.25C18.5594 27.75 18 28.2563 18 28.875V31.125ZM26.75 27.75C26.0625 27.75 25.5 28.2563 25.5 28.875V31.125C25.5 31.7437 26.0625 32.25 26.75 32.25H29.25C29.9375 32.25 30.5 31.7437 30.5 31.125V28.875C30.5 28.2563 29.9375 27.75 29.25 27.75H26.75ZM33 31.125C33 31.7437 33.5625 32.25 34.25 32.25H36.75C37.4375 32.25 38 31.7437 38 31.125V28.875C38 28.2563 37.4375 27.75 36.75 27.75H34.25C33.5625 27.75 33 28.2563 33 28.875V31.125ZM19.25 18.75C18.5594 18.75 18 19.2562 18 19.875V22.125C18 22.7437 18.5594 23.25 19.25 23.25H21.75C22.4375 23.25 23 22.7437 23 22.125V19.875C23 19.2562 22.4375 18.75 21.75 18.75H19.25ZM25.5 22.125C25.5 22.7437 26.0625 23.25 26.75 23.25H29.25C29.9375 23.25 30.5 22.7437 30.5 22.125V19.875C30.5 19.2562 29.9375 18.75 29.25 18.75H26.75C26.0625 18.75 25.5 19.2562 25.5 19.875V22.125ZM34.25 18.75C33.5625 18.75 33 19.2562 33 19.875V22.125C33 22.7437 33.5625 23.25 34.25 23.25H36.75C37.4375 23.25 38 22.7437 38 22.125V19.875C38 19.2562 37.4375 18.75 36.75 18.75H34.25Z" fill="#E6EEFF"/>
</svg>
