<svg width="57" height="94" viewBox="0 0 57 94" fill="none" xmlns="http://www.w3.org/2000/svg">
<path d="M28.5352 93.0246L3.83118 51.8048L53.1336 51.7527L28.5352 93.0246Z" fill="#001753"/>
<path d="M0 28H57V40C57 51.0457 48.0457 60 37 60H20C8.9543 60 0 51.0457 0 40V28Z" fill="#001753"/>
<ellipse cx="28.5" cy="33" rx="28.5" ry="33" fill="#001753"/>
<path d="M28 33C32.4188 33 36 29.4181 36 25C36 20.5819 32.4188 17 28 17C23.5813 17 20 20.5819 20 25C20 29.4181 23.5813 33 28 33ZM31.1688 36H24.8313C18.8506 36 14 40.85 14 46.8312C14 48.0275 14.97 48.9981 16.1662 48.9981H39.835C41.0312 49 42 48.0312 42 46.8312C42 40.85 37.15 36 31.1688 36Z" fill="#E6EEFF"/>
</svg>
