<svg width="57" height="94" viewBox="0 0 57 94" fill="none" xmlns="http://www.w3.org/2000/svg">
<path d="M28.5352 93.0246L3.83118 51.8048L53.1336 51.7527L28.5352 93.0246Z" fill="#001753"/>
<path d="M0 28H57V40C57 51.0457 48.0457 60 37 60H20C8.9543 60 0 51.0457 0 40V28Z" fill="#001753"/>
<ellipse cx="28.5" cy="33" rx="28.5" ry="33" fill="#001753"/>
<g clip-path="url(#clip0_820_22745)">
<path d="M43 25.5391C43 25.9444 42.8925 26.3523 42.6713 26.6934L40.3294 30.3045C40.0332 30.7613 39.5972 30.9988 39.1571 30.9988C38.8285 30.9988 38.4975 30.8663 38.221 30.5934L35.5 27.9121V43.1875C35.5 44.7408 34.4926 46 33.25 46H22.75C21.5078 46 20.5 44.7402 20.5 43.1875V27.9121L17.739 30.5957C17.5023 30.8652 17.1714 30.9473 16.8428 30.9473C16.4027 30.9473 15.9667 30.7096 15.6705 30.2529L13.3287 26.6934C13.1074 26.3535 13 25.9434 13 25.5391C13 24.9964 13.1927 24.4586 13.5629 24.093L19.8911 17.8469C20.4906 17.2592 21.2359 16.9375 21.9578 16.9375H23.575C23.9359 19.5953 25.7734 21.625 28 21.625C30.2265 21.625 32.0655 19.5953 32.4245 16.9375H33.9995C34.7659 16.9375 35.5098 17.2592 36.1084 17.8498L42.4365 24.0959C42.8078 24.4609 43 25 43 25.5391Z" fill="#E6EEFF"/>
</g>
<defs>
<clipPath id="clip0_820_22745">
<rect width="30" height="30" fill="white" transform="translate(13 16)"/>
</clipPath>
</defs>
</svg>
